<svg width="23" height="23" viewBox="0 0 23 23" fill="none" xmlns="http://www.w3.org/2000/svg">
<path d="M7.27966 7.19086L11.007 10.8105L14.6267 7.0831C14.7467 6.95953 14.9108 6.88869 15.0831 6.88616C15.2553 6.88364 15.4215 6.94963 15.545 7.06963C15.6686 7.18963 15.7394 7.3538 15.742 7.52603C15.7445 7.69825 15.6785 7.86443 15.5585 7.988L11.9389 11.7154L15.6663 15.335C15.7898 15.455 15.8607 15.6192 15.8632 15.7914C15.8657 15.9636 15.7997 16.1298 15.6797 16.2534C15.5597 16.377 15.3956 16.4478 15.2233 16.4503C15.0511 16.4528 14.8849 16.3868 14.7614 16.2669L11.034 12.6472L7.41436 16.3746C7.29436 16.4982 7.13019 16.569 6.95796 16.5716C6.78573 16.5741 6.61956 16.5081 6.49599 16.3881C6.37242 16.2681 6.30157 16.1039 6.29905 15.9317C6.29652 15.7595 6.36252 15.5933 6.48252 15.4697L10.1021 11.7423L6.37475 8.12271C6.25118 8.00271 6.18034 7.83854 6.17781 7.66631C6.17529 7.49408 6.24128 7.3279 6.36128 7.20433C6.48128 7.08076 6.64545 7.00992 6.81768 7.0074C6.98991 7.00487 7.15608 7.07087 7.27966 7.19086V7.19086Z" fill="#979797"/>
</svg>
