<svg width="16" height="16" viewBox="0 0 16 16" fill="none" xmlns="http://www.w3.org/2000/svg">
<path d="M1.33337 1.99999L1.33337 14C1.33332 14.1136 1.36232 14.2254 1.41762 14.3247C1.47292 14.424 1.55269 14.5075 1.64935 14.5673C1.746 14.6271 1.85634 14.6611 1.96987 14.6663C2.08341 14.6714 2.19637 14.6475 2.29804 14.5967L14.298 8.59665C14.4014 8.53505 14.4869 8.44768 14.5463 8.34309C14.6057 8.2385 14.637 8.12027 14.637 7.99999C14.637 7.8797 14.6057 7.76147 14.5463 7.65688C14.4869 7.55229 14.4014 7.46492 14.298 7.40332L2.29804 1.40332C2.19637 1.35252 2.08341 1.32855 1.96987 1.33369C1.85634 1.33883 1.746 1.37291 1.64935 1.4327C1.55269 1.49248 1.47292 1.57598 1.41762 1.67527C1.36232 1.77456 1.33332 1.88633 1.33337 1.99999V1.99999ZM12.5094 7.99999L2.6667 12.9213L2.6667 3.07865L12.5094 7.99999Z" fill="#939292"/>
</svg>
