<svg width="19" height="17" viewBox="0 0 19 17" fill="none" xmlns="http://www.w3.org/2000/svg">
<path d="M17.0644 5.78563L9.93941 1.53563C9.80931 1.458 9.65642 1.41659 9.50004 1.41663C9.34393 1.41673 9.19134 1.45814 9.06145 1.53563L1.93645 5.78563C1.79514 5.86994 1.68787 5.99268 1.63051 6.13572C1.57314 6.27876 1.56871 6.43452 1.61787 6.57999C1.66704 6.72546 1.76719 6.85292 1.90353 6.94355C2.03988 7.03418 2.20518 7.08317 2.37504 7.08329H3.1667V14.875C3.1667 15.0628 3.25011 15.243 3.39858 15.3758C3.54704 15.5087 3.74841 15.5833 3.95837 15.5833H15.0417C15.2517 15.5833 15.453 15.5087 15.6015 15.3758C15.75 15.243 15.8334 15.0628 15.8334 14.875V7.08329H16.625C16.795 7.08348 16.9606 7.0347 17.0972 6.94418C17.2338 6.85367 17.3342 6.72621 17.3836 6.58067C17.4329 6.43513 17.4286 6.27924 17.3713 6.13605C17.314 5.99287 17.2066 5.87 17.0652 5.78563H17.0644ZM14.25 14.1666H4.75004V5.80829L9.50004 2.97496L14.25 5.80829V14.1666Z" fill="white"/>
</svg>
