<svg width="9" height="8" viewBox="0 0 9 8" fill="none" xmlns="http://www.w3.org/2000/svg">
<path d="M4.64264 5.6003V4.28258H3.313C3.22484 4.28258 3.14029 4.24787 3.07795 4.18609C3.01561 4.12431 2.98059 4.04052 2.98059 3.95315C2.98059 3.86578 3.01561 3.78199 3.07795 3.7202C3.14029 3.65842 3.22484 3.62372 3.313 3.62372H4.64264V2.30599C4.64264 2.21862 4.67766 2.13483 4.74 2.07305C4.80233 2.01127 4.88688 1.97656 4.97504 1.97656C5.0632 1.97656 5.14775 2.01127 5.21009 2.07305C5.27243 2.13483 5.30745 2.21862 5.30745 2.30599V3.62372H6.63709C6.72525 3.62372 6.8098 3.65842 6.87214 3.7202C6.93448 3.78199 6.9695 3.86578 6.9695 3.95315C6.9695 4.04052 6.93448 4.12431 6.87214 4.18609C6.8098 4.24787 6.72525 4.28258 6.63709 4.28258H5.30745V5.6003C5.30745 5.68767 5.27243 5.77146 5.21009 5.83324C5.14775 5.89503 5.0632 5.92973 4.97504 5.92973C4.88688 5.92973 4.80233 5.89503 4.74 5.83324C4.67766 5.77146 4.64264 5.68767 4.64264 5.6003Z" fill="#121111"/>
</svg>
