<svg width="24" height="25" viewBox="0 0 24 25" fill="none" xmlns="http://www.w3.org/2000/svg">
<g clip-path="url(#clip0_459_538)">
<path d="M2.00073 4.5C2.00073 4.23478 2.10609 3.98043 2.29363 3.79289C2.48116 3.60536 2.73552 3.5 3.00073 3.5H21.0007C21.2659 3.5 21.5203 3.60536 21.7078 3.79289C21.8954 3.98043 22.0007 4.23478 22.0007 4.5C22.0007 4.76522 21.8954 5.01957 21.7078 5.20711C21.5203 5.39464 21.2659 5.5 21.0007 5.5H3.00073C2.73552 5.5 2.48116 5.39464 2.29363 5.20711C2.10609 5.01957 2.00073 4.76522 2.00073 4.5V4.5ZM3.00073 13.5H21.0007C21.2659 13.5 21.5203 13.3946 21.7078 13.2071C21.8954 13.0196 22.0007 12.7652 22.0007 12.5C22.0007 12.2348 21.8954 11.9804 21.7078 11.7929C21.5203 11.6054 21.2659 11.5 21.0007 11.5H3.00073C2.73552 11.5 2.48116 11.6054 2.29363 11.7929C2.10609 11.9804 2.00073 12.2348 2.00073 12.5C2.00073 12.7652 2.10609 13.0196 2.29363 13.2071C2.48116 13.3946 2.73552 13.5 3.00073 13.5V13.5ZM3.00073 21.5H21.0007C21.2659 21.5 21.5203 21.3946 21.7078 21.2071C21.8954 21.0196 22.0007 20.7652 22.0007 20.5C22.0007 20.2348 21.8954 19.9804 21.7078 19.7929C21.5203 19.6054 21.2659 19.5 21.0007 19.5H3.00073C2.73552 19.5 2.48116 19.6054 2.29363 19.7929C2.10609 19.9804 2.00073 20.2348 2.00073 20.5C2.00073 20.7652 2.10609 21.0196 2.29363 21.2071C2.48116 21.3946 2.73552 21.5 3.00073 21.5V21.5Z" fill="#06A0B5"/>
</g>
<defs>
<clipPath id="clip0_459_538">
<rect width="24" height="24" fill="white" transform="translate(0.000732422 0.5)"/>
</clipPath>
</defs>
</svg>
