<svg width="23" height="23" viewBox="0 0 23 23" fill="none" xmlns="http://www.w3.org/2000/svg">
<path d="M7.61285 6.51374L11.3402 10.1334L14.9598 6.40597C15.0798 6.2824 15.244 6.21156 15.4162 6.20904C15.5885 6.20651 15.7547 6.27251 15.8782 6.3925C16.0018 6.5125 16.0726 6.67667 16.0752 6.8489C16.0777 7.02113 16.0117 7.18731 15.8917 7.31088L12.2721 11.0383L15.9995 14.6579C16.123 14.7779 16.1939 14.9421 16.1964 15.1143C16.1989 15.2865 16.1329 15.4527 16.0129 15.5763C15.8929 15.6998 15.7288 15.7707 15.5565 15.7732C15.3843 15.7757 15.2181 15.7097 15.0946 15.5897L11.3672 11.9701L7.74755 15.6975C7.62755 15.8211 7.46338 15.8919 7.29115 15.8944C7.11893 15.897 6.95275 15.831 6.82918 15.711C6.70561 15.591 6.63477 15.4268 6.63224 15.2546C6.62971 15.0823 6.69571 14.9162 6.81571 14.7926L10.4353 11.0652L6.70794 7.44558C6.58437 7.32559 6.51353 7.16142 6.511 6.98919C6.50848 6.81696 6.57447 6.65078 6.69447 6.52721C6.81447 6.40364 6.97864 6.3328 7.15087 6.33027C7.3231 6.32775 7.48928 6.39374 7.61285 6.51374V6.51374Z" fill="#557744" fill-opacity="0.643137"/>
</svg>
