<svg width="25" height="24" viewBox="0 0 25 24" fill="none" xmlns="http://www.w3.org/2000/svg">
<path d="M16.0145 4.35401C14.9891 3.32891 13.7053 2.60053 12.2994 2.24614C10.8935 1.89176 9.41782 1.9246 8.02905 2.34118C6.64028 2.75776 5.39019 3.54254 4.41143 4.61225C3.43267 5.68195 2.76176 6.99667 2.46989 8.41689C2.17801 9.83712 2.27607 11.3099 2.75365 12.6789C3.23123 14.0479 4.07052 15.262 5.18245 16.1925C6.29438 17.123 7.63748 17.7352 9.06922 17.964C10.501 18.1927 11.9679 18.0297 13.3145 17.492L16.8945 21.073C17.4876 21.6667 18.2923 22.0004 19.1316 22.0008C19.9708 22.0012 20.7758 21.6682 21.3695 21.075C21.9632 20.4819 22.2969 19.6772 22.2973 18.8379C22.2977 17.9987 21.9646 17.1937 21.3715 16.6L17.7915 13.02C18.3743 11.5599 18.5166 9.961 18.2008 8.42088C17.885 6.88077 17.1249 5.46692 16.0145 4.35401ZM10.3325 16.069C8.93675 16.0695 7.58404 15.586 6.50483 14.7009C5.42561 13.8158 4.68666 12.5839 4.41388 11.2151C4.14109 9.8463 4.35135 8.42525 5.00883 7.19408C5.66631 5.96291 6.73034 4.99779 8.01961 4.46316C9.30889 3.92853 10.7437 3.85746 12.0794 4.26207C13.4152 4.66669 14.5694 5.52194 15.3454 6.68211C16.1213 7.84229 16.4709 9.23561 16.3347 10.6247C16.1986 12.0137 15.585 13.3126 14.5985 14.3C14.0395 14.8621 13.3747 15.3078 12.6425 15.6114C11.9103 15.915 11.1252 16.0706 10.3325 16.069ZM19.9575 18.012C20.1666 18.2323 20.2814 18.5255 20.2774 18.8292C20.2735 19.1329 20.1511 19.4231 19.9363 19.6378C19.7215 19.8526 19.4314 19.975 19.1277 19.979C18.824 19.9829 18.5308 19.8681 18.3105 19.659L15.1245 16.473C15.4387 16.2421 15.7362 15.9892 16.0145 15.716C16.2876 15.4377 16.5406 15.1403 16.7715 14.826L19.9575 18.012ZM11.3335 14C11.3335 14.2652 11.2281 14.5196 11.0406 14.7071C10.8531 14.8947 10.5987 15 10.3335 15C9.01708 14.9984 7.75503 14.4749 6.8241 13.5441C5.89316 12.6134 5.36933 11.3514 5.36748 10.035C5.36667 9.76797 5.47122 9.51139 5.65845 9.32098C5.84568 9.13057 6.10047 9.0217 6.36748 9.01801C6.49787 9.01589 6.62739 9.03971 6.74849 9.08809C6.8696 9.13646 6.97988 9.20843 7.07293 9.2998C7.16598 9.39117 7.23993 9.50013 7.2905 9.62034C7.34107 9.74054 7.36723 9.8696 7.36748 10V10.035C7.36828 10.8213 7.68105 11.5752 8.23714 12.1311C8.79323 12.687 9.54719 12.9995 10.3335 13C10.5987 13 10.8531 13.1054 11.0406 13.2929C11.2281 13.4804 11.3335 13.7348 11.3335 14Z" fill="#979797" fill-opacity="0.39"/>
</svg>
