<svg width="24" height="24" viewBox="0 0 24 24" fill="none" xmlns="http://www.w3.org/2000/svg">
<path d="M21.939 17.7892V2.96486C21.939 2.70274 21.8339 2.45137 21.6469 2.26603C21.4599 2.08069 21.2062 1.97656 20.9418 1.97656H8.97504C8.71055 1.97656 8.45691 2.08069 8.26989 2.26603C8.08287 2.45137 7.97781 2.70274 7.97781 2.96486V14.3856C7.37414 14.0299 6.68566 13.8402 5.98336 13.8361C5.19442 13.8361 4.42321 14.0679 3.76724 14.5023C3.11126 14.9367 2.6 15.5541 2.29809 16.2764C1.99617 16.9988 1.91718 17.7936 2.07109 18.5605C2.22501 19.3273 2.60491 20.0317 3.16277 20.5846C3.72063 21.1374 4.43139 21.5139 5.20516 21.6665C5.97893 21.819 6.78097 21.7407 7.50984 21.4415C8.23872 21.1423 8.8617 20.6356 9.30001 19.9855C9.73832 19.3354 9.97226 18.5711 9.97226 17.7892V3.95315H19.9445V14.3856C19.3409 14.0299 18.6524 13.8402 17.9501 13.8361C17.1611 13.8361 16.3899 14.0679 15.734 14.5023C15.078 14.9367 14.5667 15.5541 14.2648 16.2764C13.9629 16.9988 13.8839 17.7936 14.0378 18.5605C14.1917 19.3273 14.5716 20.0317 15.1295 20.5846C15.6874 21.1374 16.3981 21.5139 17.1719 21.6665C17.9457 21.819 18.7477 21.7407 19.4766 21.4415C20.2054 21.1423 20.8284 20.6356 21.2667 19.9855C21.705 19.3354 21.939 18.5711 21.939 17.7892V17.7892ZM5.98336 19.7658C5.58889 19.7658 5.20328 19.6499 4.8753 19.4327C4.54731 19.2155 4.29168 18.9068 4.14072 18.5456C3.98976 18.1845 3.95027 17.7871 4.02722 17.4036C4.10418 17.0202 4.29413 16.668 4.57306 16.3916C4.85199 16.1152 5.20737 15.9269 5.59426 15.8506C5.98114 15.7744 6.38216 15.8135 6.7466 15.9631C7.11104 16.1127 7.42253 16.3661 7.64168 16.6911C7.86084 17.0162 7.97781 17.3983 7.97781 17.7892C7.97781 18.3135 7.76768 18.8162 7.39365 19.1869C7.01961 19.5576 6.51232 19.7658 5.98336 19.7658ZM15.9556 17.7892C15.9556 17.3983 16.0726 17.0162 16.2918 16.6911C16.5109 16.3661 16.8224 16.1127 17.1868 15.9631C17.5513 15.8135 17.9523 15.7744 18.3392 15.8506C18.7261 15.9269 19.0814 16.1152 19.3604 16.3916C19.6393 16.668 19.8293 17.0202 19.9062 17.4036C19.9832 17.7871 19.9437 18.1845 19.7927 18.5456C19.6418 18.9068 19.3861 19.2155 19.0581 19.4327C18.7302 19.6499 18.3445 19.7658 17.9501 19.7658C17.4211 19.7658 16.9138 19.5576 16.5398 19.1869C16.1658 18.8162 15.9556 18.3135 15.9556 17.7892Z" fill="white"/>
</svg>
